<?xml version="1.0" standalone="no"?>
<!DOCTYPE svg PUBLIC "-//W3C//DTD SVG 20010904//EN"
 "http://www.w3.org/TR/2001/REC-SVG-20010904/DTD/svg10.dtd">
<svg version="1.0" xmlns="http://www.w3.org/2000/svg"
 width="700.000000pt" height="700.000000pt" viewBox="0 0 700.000000 700.000000"
 preserveAspectRatio="xMidYMid meet">
<metadata>
Created by potrace 1.14, written by Peter Selinger 2001-2017
</metadata>
<g transform="translate(0.000000,700.000000) scale(0.100000,-0.100000)"
fill="#000000" stroke="none">
<path d="M3215 6990 c-845 -76 -1596 -423 -2186 -1010 -293 -292 -504 -589
-683 -962 -722 -1499 -286 -3307 1039 -4309 636 -481 1419 -731 2210 -706 105
3 251 13 325 22 829 99 1604 497 2162 1109 896 984 1159 2373 686 3624 -61
161 -206 454 -298 600 -152 243 -395 535 -597 718 -546 497 -1191 797 -1923
895 -167 23 -575 33 -735 19z m550 -70 c354 -30 670 -102 982 -224 1574 -613
2463 -2276 2103 -3933 -301 -1383 -1429 -2441 -2829 -2653 -533 -81 -1098 -34
-1596 132 -877 292 -1584 904 -1995 1726 -522 1043 -473 2299 128 3300 511
851 1382 1447 2352 1611 100 17 160 24 370 44 82 8 374 6 485 -3z"/>
<path d="M3580 6574 c-166 -19 -318 -53 -445 -101 -506 -188 -849 -582 -967
-1110 -20 -86 -22 -128 -23 -338 0 -211 3 -252 22 -340 106 -476 390 -842 819
-1054 96 -47 249 -102 327 -116 20 -4 39 -10 42 -14 2 -4 -28 -15 -68 -25
-172 -41 -400 -150 -560 -269 -224 -166 -425 -446 -512 -712 -60 -186 -70
-260 -70 -520 1 -210 3 -252 23 -338 68 -307 197 -543 411 -757 239 -239 509
-376 857 -437 152 -26 472 -24 626 5 296 56 543 173 725 347 l78 74 -102 102
-101 102 -74 -63 c-138 -120 -278 -197 -444 -245 -250 -73 -542 -73 -795 0
-453 130 -800 519 -874 979 -20 126 -20 353 0 471 65 372 305 700 640 876 196
104 400 152 640 152 341 0 599 -93 848 -306 l59 -50 101 102 102 102 -73 70
c-90 84 -211 166 -323 218 -91 41 -296 111 -329 111 -11 0 -20 5 -20 10 0 6 8
10 18 10 34 0 246 72 327 110 44 21 109 57 145 80 79 52 227 175 241 203 10
17 -1 32 -89 120 l-101 101 -53 -50 c-225 -212 -508 -317 -858 -317 -374 0
-691 125 -929 367 -251 255 -361 529 -362 896 0 265 55 471 177 667 239 383
646 603 1116 603 333 0 643 -114 856 -314 l53 -50 101 101 101 101 -22 28
c-33 42 -137 130 -216 181 -144 95 -355 176 -558 214 -107 20 -397 34 -487 23z"/>
</g>
</svg>
