<?xml version="1.0" standalone="no"?>
<!DOCTYPE svg PUBLIC "-//W3C//DTD SVG 20010904//EN"
 "http://www.w3.org/TR/2001/REC-SVG-20010904/DTD/svg10.dtd">
<svg version="1.0" xmlns="http://www.w3.org/2000/svg"
 width="700.000000pt" height="700.000000pt" viewBox="0 0 700.000000 700.000000"
 preserveAspectRatio="xMidYMid meet">
<metadata>
Created by potrace 1.14, written by Peter Selinger 2001-2017
</metadata>
<g transform="translate(0.000000,700.000000) scale(0.100000,-0.100000)"
fill="#000000" stroke="none">
<path d="M3215 6990 c-845 -76 -1596 -423 -2186 -1010 -293 -292 -504 -589
-683 -962 -722 -1499 -286 -3307 1039 -4309 636 -481 1419 -731 2210 -706 105
3 251 13 325 22 829 99 1604 497 2162 1109 896 984 1159 2373 686 3624 -61
161 -206 454 -298 600 -152 243 -395 535 -597 718 -546 497 -1191 797 -1923
895 -167 23 -575 33 -735 19z m550 -70 c354 -30 670 -102 982 -224 1574 -613
2463 -2276 2103 -3933 -301 -1383 -1429 -2441 -2829 -2653 -533 -81 -1098 -34
-1596 132 -877 292 -1584 904 -1995 1726 -522 1043 -473 2299 128 3300 511
851 1382 1447 2352 1611 100 17 160 24 370 44 82 8 374 6 485 -3z"/>
<path d="M1307 4403 c-4 -3 -7 -420 -7 -925 l0 -918 44 0 44 0 4 213 c5 226
12 262 61 315 66 71 203 90 288 40 79 -46 84 -65 87 -335 l3 -233 45 0 44 0 0
228 c0 249 -7 295 -55 358 -14 19 -50 46 -78 61 -45 24 -64 27 -142 27 -102 0
-158 -19 -212 -72 -17 -18 -34 -32 -38 -32 -3 0 -4 170 -2 378 3 320 6 382 19
412 39 84 114 129 215 130 99 0 149 -28 184 -105 16 -35 19 -68 19 -262 l0
-223 46 0 45 0 -3 248 c-3 231 -4 250 -25 287 -51 96 -129 137 -255 137 -90 0
-154 -24 -210 -80 l-38 -36 0 197 0 197 -38 0 c-21 0 -42 -3 -45 -7z"/>
<path d="M661 4345 c-134 -38 -238 -123 -292 -240 -121 -258 10 -555 279 -636
l43 -12 -55 -18 c-212 -65 -343 -279 -307 -501 37 -230 217 -380 456 -381 131
-1 257 43 318 111 16 17 15 20 -12 46 l-28 27 -52 -36 c-77 -51 -147 -69 -248
-62 -140 8 -254 84 -311 205 -24 50 -27 69 -27 162 0 87 4 113 22 153 33 71
113 150 186 183 55 26 73 29 162 29 108 0 161 -17 233 -71 l34 -26 29 28 c28
26 28 28 11 47 -24 27 -98 69 -156 88 l-48 17 38 12 c63 21 127 56 157 87 l27
29 -29 28 -29 28 -39 -30 c-136 -109 -357 -99 -492 23 -21 19 -53 63 -72 97
-33 61 -34 67 -34 173 0 106 1 112 34 173 79 145 239 221 401 192 67 -12 147
-47 169 -74 19 -23 34 -20 65 13 l27 28 -50 37 c-28 21 -76 47 -108 58 -77 27
-227 34 -302 13z"/>
<path d="M2369 4130 c-217 -37 -333 -286 -230 -495 35 -72 88 -121 167 -157
40 -18 67 -23 144 -23 88 0 101 3 161 32 36 18 73 41 83 52 17 19 17 21 -5 50
-22 31 -23 31 -43 12 -50 -45 -108 -65 -191 -65 -67 0 -88 4 -132 27 -56 29
-98 76 -119 134 -28 78 -48 73 272 73 l285 0 -7 58 c-16 134 -79 230 -181 274
-66 29 -138 39 -204 28z m137 -85 c74 -22 140 -98 159 -182 l7 -33 -242 0
-242 0 7 33 c24 113 119 194 231 196 17 1 53 -6 80 -14z"/>
<path d="M3145 4130 c-107 -15 -207 -96 -246 -198 -26 -70 -29 -195 -5 -260
65 -178 271 -265 467 -197 44 15 119 68 119 84 0 5 -9 20 -20 34 l-21 26 -44
-34 c-153 -116 -406 -27 -426 150 l-4 30 283 3 282 2 0 33 c0 50 -27 143 -54
186 -68 107 -194 161 -331 141z m133 -85 c80 -24 161 -120 162 -192 l0 -23
-234 0 c-129 0 -237 3 -240 8 -9 15 32 114 60 143 68 72 153 93 252 64z"/>
<path d="M3989 4130 c-64 -11 -122 -43 -158 -87 l-31 -38 0 63 0 62 -45 0 -45
0 0 -335 0 -335 50 0 50 0 0 213 c0 183 3 217 19 252 33 73 113 125 194 125
25 0 27 3 27 45 0 25 -3 44 -7 44 -5 -1 -29 -5 -54 -9z"/>
<path d="M3800 3305 l0 -75 -60 0 -60 0 0 -35 0 -35 59 0 59 0 4 -232 c4 -247
9 -271 55 -320 49 -51 158 -66 241 -33 46 19 48 22 30 60 -13 29 -14 30 -63 9
-52 -22 -107 -11 -140 28 l-25 30 0 229 0 229 100 0 100 0 0 35 0 35 -100 0
-100 0 0 75 0 75 -50 0 -50 0 0 -75z"/>
<path d="M2295 3226 c-57 -14 -138 -50 -154 -69 -7 -9 -4 -22 10 -44 l20 -32
36 25 c55 37 136 57 209 51 108 -8 155 -53 170 -164 l6 -51 -163 -4 c-151 -3
-168 -5 -214 -28 -27 -14 -60 -40 -72 -58 -48 -73 -37 -172 26 -232 94 -89
304 -83 392 11 l29 31 0 -51 0 -51 46 0 46 0 -4 248 c-3 225 -5 251 -24 292
-53 116 -196 166 -359 126z m295 -406 c0 -114 -89 -190 -221 -190 -73 0 -124
22 -151 64 -35 56 -6 141 57 166 11 5 86 9 168 9 l147 1 0 -50z"/>
<path d="M3168 3227 c-46 -14 -108 -53 -140 -92 -17 -19 -17 -18 -18 38 l0 57
-45 0 -45 0 0 -335 0 -335 45 0 45 0 0 168 c0 212 10 284 47 337 40 58 110 90
193 90 82 -1 133 -24 168 -78 l27 -40 3 -239 3 -238 45 0 44 0 0 234 c0 252
-5 287 -56 353 -56 74 -204 111 -316 80z"/>
<path d="M4443 3222 c-152 -54 -231 -181 -221 -351 13 -211 184 -340 409 -309
66 9 142 44 176 80 l21 23 -23 29 -23 29 -31 -25 c-52 -44 -110 -61 -199 -57
-66 3 -86 9 -128 34 -54 34 -101 101 -111 158 l-6 37 283 0 283 0 -5 68 c-12
171 -129 287 -300 298 -55 4 -86 0 -125 -14z m202 -81 c57 -26 105 -81 126
-143 l18 -53 -236 -3 c-130 -1 -238 0 -241 3 -3 2 1 26 9 52 16 57 86 133 139
150 56 17 140 15 185 -6z"/>
<path d="M5299 3226 c-51 -13 -98 -44 -129 -83 l-20 -26 0 57 0 56 -45 0 -45
0 0 -335 0 -335 45 0 45 0 0 196 c0 107 5 215 11 238 22 88 107 155 197 156
l42 0 0 45 c0 43 -1 45 -27 44 -16 0 -49 -6 -74 -13z"/>
</g>
</svg>
